<svg id="Layer_1" data-name="Layer 1" xmlns="http://www.w3.org/2000/svg" viewBox="0 0 170.37 193.85"><defs><style>.cls-1{fill:#00bab1;}.cls-2,.cls-6{fill:none;}.cls-2,.cls-5{stroke:#450a6b;}.cls-2{stroke-linecap:round;}.cls-2,.cls-5,.cls-6{stroke-miterlimit:10;stroke-width:3px;}.cls-3{fill:#450b6b;}.cls-4{fill:#f2288f;}.cls-5,.cls-7{fill:#fff;}.cls-6{stroke:#45096b;}</style></defs><title>Untitled-5</title><path class="cls-1" d="M167.22,116.92L108.95,58.65a10.76,10.76,0,0,0-7.29-3.15L41,53.69A10.76,10.76,0,0,0,29.95,64.75l1.68,60A10.76,10.76,0,0,0,34.78,132L93.44,190.7a10.76,10.76,0,0,0,15.22,0l58.56-58.56A10.76,10.76,0,0,0,167.22,116.92ZM64.16,82.64a11,11,0,1,1,0-15.56A11,11,0,0,1,64.16,82.64Z"/><path class="cls-2" d="M54.79,70s-58,19.21-35.54,52.11"/><path class="cls-3" d="M112.38,13.24a45.09,45.09,0,0,0-63.84,0,1,1,0,0,0,0,1.37L55,21a1,1,0,0,0,1.37,0,34.1,34.1,0,0,1,48.28,0A1,1,0,0,0,106,21l6.41-6.41A1,1,0,0,0,112.38,13.24Z"/><path class="cls-4" d="M68.93,34.13a0.87,0.87,0,0,0,.62-0.26,15.42,15.42,0,0,1,21.84,0,0.87,0.87,0,0,0,1.24,0l5.77-5.77a0.88,0.88,0,0,0,0-1.24,25.32,25.32,0,0,0-35.85,0,0.87,0.87,0,0,0,0,1.24l5.77,5.77A0.88,0.88,0,0,0,68.93,34.13Z"/><path class="cls-5" d="M165.22,107L106.95,48.74a10.76,10.76,0,0,0-7.29-3.15L39,43.78A10.76,10.76,0,0,0,27.95,54.83l1.68,60a10.76,10.76,0,0,0,3.15,7.31l58.67,58.67a10.76,10.76,0,0,0,15.22,0l58.56-58.56A10.76,10.76,0,0,0,165.22,107ZM62.16,77.73a11,11,0,1,1,0-15.56A11,11,0,0,1,62.16,77.73Z"/><path class="cls-1" d="M154.26,104.82L102.9,53.46a9.48,9.48,0,0,0-6.42-2.77L43,49.09a9.48,9.48,0,0,0-9.76,9.74l1.48,52.86a9.48,9.48,0,0,0,2.77,6.44l51.7,51.7a9.48,9.48,0,0,0,13.41,0l51.61-51.61A9.48,9.48,0,0,0,154.26,104.82ZM62.16,77.73a11,11,0,1,1,0-15.56A11,11,0,0,1,62.16,77.73Z"/><circle class="cls-6" cx="54.39" cy="69.95" r="11" transform="translate(-33.53 58.94) rotate(-45)"/><path class="cls-7" d="M72.27,84.84l15.4,6.69a1.71,1.71,0,0,0,1.59-.12l14.24-8.9a1.71,1.71,0,0,1,2.61,1.62l-1.6,16.71a1.71,1.71,0,0,0,.6,1.48L118,113.11a1.71,1.71,0,0,1-.73,3l-16.39,3.64a1.71,1.71,0,0,0-1.22,1l-6.29,15.57a1.71,1.71,0,0,1-3.06.23L81.76,122.1a1.71,1.71,0,0,0-1.36-.84l-16.75-1.17a1.71,1.71,0,0,1-1.16-2.84l11.12-12.58a1.71,1.71,0,0,0,.38-1.55L69.93,86.83A1.71,1.71,0,0,1,72.27,84.84Z"/><path class="cls-1" d="M79.54,93.95l9.24,4a1,1,0,0,0,1-.07l8.55-5.34a1,1,0,0,1,1.57,1l-1,10a1,1,0,0,0,.36.89l7.72,6.48a1,1,0,0,1-.44,1.79l-9.84,2.19a1,1,0,0,0-.73.62l-3.78,9.34a1,1,0,0,1-1.84.14l-5.12-8.68a1,1,0,0,0-.81-0.5l-10.05-.7a1,1,0,0,1-.7-1.71l6.67-7.55a1,1,0,0,0,.23-0.93l-2.44-9.78A1,1,0,0,1,79.54,93.95Z"/><path class="cls-2" d="M54.39,70c-8.48,2.68-17.48,5.64-26.46,3.93C19.44,72.26,11.85,66.65,8.51,58.6c-2.15-5.18-5.81-16.83-.9-21.24,4.07-3.66,8.8-1.48,10.17,3.12,1.14,3.82.76,8.19,0,12C16.13,61,11,71.15,1.5,72.36"/></svg>