<svg id="Layer_1" data-name="Layer 1" xmlns="http://www.w3.org/2000/svg" xmlns:xlink="http://www.w3.org/1999/xlink" viewBox="0 0 33.38 29"><defs><style>.cls-1,.cls-2{fill:none;}.cls-1{clip-rule:evenodd;}.cls-3{clip-path:url(#clip-path);}.cls-4{clip-path:url(#clip-path-2);}.cls-5{fill:#465162;}</style><clipPath id="clip-path" transform="translate(5 5)"><path class="cls-1" d="M23.38,2.25A9.61,9.61,0,0,1,20.63,3,4.81,4.81,0,0,0,22.74.35a9.58,9.58,0,0,1-3,1.16,4.8,4.8,0,0,0-8.3,3.28,4.86,4.86,0,0,0,.12,1.09,13.62,13.62,0,0,1-9.89-5,4.8,4.8,0,0,0,1.49,6.4,4.78,4.78,0,0,1-2.17-.6s0,0,0,.06a4.8,4.8,0,0,0,3.85,4.7,4.86,4.86,0,0,1-2.17.08A4.8,4.8,0,0,0,7.1,14.86a9.63,9.63,0,0,1-6,2.05A9.6,9.6,0,0,1,0,16.84,13.57,13.57,0,0,0,7.35,19,13.56,13.56,0,0,0,21,5.35c0-.21,0-0.42,0-0.62a9.76,9.76,0,0,0,2.39-2.48"/></clipPath><clipPath id="clip-path-2" transform="translate(5 5)"><rect class="cls-2" x="-499" y="-365" width="1440" height="1024"/></clipPath></defs><title>Untitled-12</title><g class="cls-3"><g class="cls-4"><rect class="cls-5" width="33.38" height="29"/></g></g></svg>