<?xml version="1.0" encoding="UTF-8" standalone="no"?>
<svg width="38px" height="38px" viewBox="0 0 38 38" version="1.1" xmlns="http://www.w3.org/2000/svg" xmlns:xlink="http://www.w3.org/1999/xlink">
    <!-- Generator: Sketch 39 (31667) - http://www.bohemiancoding.com/sketch -->
    <title>Combined Shape</title>
    <desc>Created with Sketch.</desc>
    <defs></defs>
    <g id="Page-1" stroke="none" stroke-width="1" fill="none" fill-rule="evenodd">
        <g id="Buttons-Notifications" transform="translate(-270.000000, -162.000000)" fill="#FFFFFF">
            <g id="Group-14" transform="translate(270.000000, 162.000000)">
                <path d="M17.3632056,5.80204743 C11.6695054,6.68848431 10.8590773,12.3068386 10.1972941,16.8951875 C9.51102622,21.6482068 8.84505241,24.6799999 5.82158619,25.125 L5,25.125 L5,26.75 L15.0239695,26.75 C15.4057235,28.5702931 17.0437111,29.943125 19,29.943125 C20.9562889,29.943125 22.5942765,28.5702931 22.9760305,26.75 L33,26.75 L33,25.125 L32.1784138,25.125 C29.1549476,24.6799999 28.4889738,21.6482068 27.8027059,16.8951875 C27.1409227,12.3068386 26.3304946,6.68848431 20.6367944,5.80204743 C20.6435763,5.74570188 20.6470588,5.68671378 20.6470588,5.625 C20.6470588,4.7271875 19.91,4 19,4 C18.09,4 17.3529412,4.7271875 17.3529412,5.625 C17.3529412,5.68671378 17.3564237,5.74570188 17.3632056,5.80204743 L17.3632056,5.80204743 Z M16.6094108,26.75 L21.3905892,26.75 C21.0482983,27.7277955 20.1060334,28.431875 19,28.431875 C17.8939666,28.431875 16.9517017,27.7277955 16.6094108,26.75 L16.6094108,26.75 Z M9.08740429,25.125 L28.9125957,25.125 C27.1814113,23.3097233 26.7292909,20.1749956 26.2865882,17.1080625 C25.5511765,12.0088125 24.8561176,7.193125 19,7.193125 C13.1438824,7.193125 12.4488235,12.0088125 11.7134118,17.1080625 C11.2707091,20.1749956 10.8185887,23.3097233 9.08740429,25.125 L9.08740429,25.125 Z M19,38 C29.4934102,38 38,29.4934102 38,19 C38,8.50658975 29.4934102,0 19,0 C8.50658975,0 0,8.50658975 0,19 C0,29.4934102 8.50658975,38 19,38 L19,38 Z" id="Combined-Shape"></path>
            </g>
        </g>
    </g>
</svg>