<svg id="Layer_1" data-name="Layer 1" xmlns="http://www.w3.org/2000/svg" viewBox="0 0 137.78 177.86"><defs><style>.cls-1,.cls-2,.cls-7{fill:#ff3350;}.cls-1{stroke:#ff3350;}.cls-1,.cls-3,.cls-6,.cls-7,.cls-9{stroke-miterlimit:10;stroke-width:3px;}.cls-3,.cls-9{fill:none;}.cls-3,.cls-6{stroke:#450a6b;}.cls-4{fill:#450b6b;}.cls-5{fill:#f2288f;}.cls-6,.cls-8{fill:#fff;}.cls-7,.cls-9{stroke:#45096b;}</style></defs><title>Untitled-7</title><polygon class="cls-1" points="136.28 87.75 10.5 87.75 10.5 105.02 16.14 105.02 16.14 176.36 130.64 176.36 130.64 105.02 136.28 105.02 136.28 87.75"/><path class="cls-2" d="M27.23,45.61c-6,0-13,7-13,13,0-6-7-13-13-13,6,0,13-7,13-13C14.18,38.58,21.21,45.61,27.23,45.61Z"/><path class="cls-2" d="M70.65,58.77c-3.45,0-7.47,4-7.47,7.47,0-3.45-4-7.47-7.47-7.47,3.45,0,7.47-4,7.47-7.47C63.18,54.75,67.2,58.77,70.65,58.77Z"/><path class="cls-2" d="M135.26,68.94c-6.27,0-13.58,7.31-13.58,13.58,0-6.27-7.31-13.58-13.58-13.58,6.27,0,13.58-7.31,13.58-13.58C121.68,61.63,129,68.94,135.26,68.94Z"/><path class="cls-3" d="M68,105c-13.68,0-4.41-19.56-.66-25.27,5.95-9.05,13.38-16.92,22.72-22.52a27.85,27.85,0,0,1,9.78-4c1.87-.3,4.06-0.18,5.29,1.26s1.06,3.25.7,4.93a27,27,0,0,1-3.45,8.2C98,75.07,91.56,81.07,84.5,86,77.16,91,68.57,94.14,61.6,99.69"/><path class="cls-3" d="M58.86,105c13.68,0,4.41-19.56.66-25.27C53.58,70.7,46.15,62.84,36.81,57.23a27.85,27.85,0,0,0-9.78-4c-1.87-.3-4.06-0.18-5.29,1.26s-1.06,3.25-.7,4.93a27,27,0,0,0,3.45,8.2C28.93,75.07,35.33,81.07,42.39,86c7.34,5.08,15.93,8.18,22.9,13.73"/><path class="cls-4" d="M96.15,13.24a45.09,45.09,0,0,0-63.84,0,1,1,0,0,0,0,1.37L38.72,21a1,1,0,0,0,1.37,0,34.1,34.1,0,0,1,48.28,0,1,1,0,0,0,1.37,0l6.41-6.41A1,1,0,0,0,96.15,13.24Z"/><path class="cls-5" d="M52.69,34.13a0.87,0.87,0,0,0,.62-0.26,15.42,15.42,0,0,1,21.84,0,0.87,0.87,0,0,0,1.24,0l5.77-5.77a0.88,0.88,0,0,0,0-1.24,25.32,25.32,0,0,0-35.85,0,0.87,0.87,0,0,0,0,1.24l5.77,5.77A0.88,0.88,0,0,0,52.69,34.13Z"/><rect class="cls-6" x="7.14" y="91.75" width="114.5" height="84.6"/><rect class="cls-2" x="19.76" y="104.86" width="16.25" height="70"/><rect class="cls-2" x="92.01" y="104.86" width="16.25" height="70"/><rect class="cls-2" x="46.74" y="104.86" width="33.3" height="70"/><rect class="cls-6" x="1.5" y="87.75" width="125.78" height="17.26"/><rect class="cls-2" x="5.56" y="91.04" width="120.2" height="12.5"/><rect class="cls-7" x="55.26" y="85.12" width="16.25" height="35.47"/><rect class="cls-8" x="60.77" y="85.12" width="5.25" height="35.47"/><path class="cls-3" d="M68,105"/><rect class="cls-9" x="55.26" y="85.12" width="16.25" height="35.47"/></svg>