<svg id="Layer_1" data-name="Layer 1" xmlns="http://www.w3.org/2000/svg" viewBox="0 0 136.75 179.11"><defs><style>.cls-1,.cls-3,.cls-8,.cls-9{fill:none;}.cls-1,.cls-2{stroke:#f6921e;}.cls-1,.cls-2,.cls-3,.cls-4,.cls-8,.cls-9{stroke-miterlimit:10;}.cls-1,.cls-3,.cls-4,.cls-8,.cls-9{stroke-width:3px;}.cls-2,.cls-7{fill:#f6921e;}.cls-2{stroke-width:2px;}.cls-3,.cls-4{stroke:#450a6b;}.cls-4{fill:#fff;}.cls-5{fill:#450b6b;}.cls-6{fill:#f2288f;}.cls-8,.cls-9{stroke:#fff;}.cls-9{stroke-linecap:round;}</style></defs><title>Untitled-6</title><line class="cls-1" x1="23.75" y1="93.36" x2="67.75" y2="60.61"/><line class="cls-1" x1="111.25" y1="93.36" x2="67.25" y2="60.61"/><rect class="cls-2" x="1.5" y="97.11" width="133.75" height="81" rx="12" ry="12"/><line class="cls-3" x1="13.75" y1="93.36" x2="67.75" y2="60.61"/><line class="cls-3" x1="121.25" y1="93.36" x2="67.25" y2="60.61"/><circle class="cls-4" cx="67.13" cy="60.73" r="9.88"/><path class="cls-5" d="M98.38,13.24a45.09,45.09,0,0,0-63.84,0,1,1,0,0,0,0,1.37L41,21a1,1,0,0,0,1.37,0A34.1,34.1,0,0,1,90.6,21,1,1,0,0,0,92,21l6.41-6.41A1,1,0,0,0,98.38,13.24Z"/><path class="cls-6" d="M54.93,34.13a0.87,0.87,0,0,0,.62-0.26,15.42,15.42,0,0,1,21.84,0,0.87,0.87,0,0,0,1.24,0l5.77-5.77a0.88,0.88,0,0,0,0-1.24,25.32,25.32,0,0,0-35.85,0,0.87,0.87,0,0,0,0,1.24l5.77,5.77A0.88,0.88,0,0,0,54.93,34.13Z"/><circle class="cls-7" cx="67.13" cy="60.73" r="4.33"/><rect class="cls-4" x="1.5" y="91.36" width="133.75" height="81" rx="12" ry="12"/><rect class="cls-7" x="6.59" y="97.07" width="122.57" height="69.57" rx="10.01" ry="10.01"/><rect class="cls-8" x="12.5" y="110.05" width="23.03" height="42.33" rx="9.82" ry="9.82"/><path class="cls-9" d="M99.38,152.63V119.87a9.84,9.84,0,0,1,9.82-9.82h3.4a9.84,9.84,0,0,1,9.82,9.82v32.76"/><rect class="cls-8" x="42.24" y="110.05" width="23.03" height="24.94" rx="9.82" ry="9.82"/><path class="cls-9" d="M42.24,151.72V119.87a9.84,9.84,0,0,1,9.82-9.82h3.4a9.84,9.84,0,0,1,9.82,9.82v3.68"/><path class="cls-9" d="M92.93,148.4a9.82,9.82,0,0,1-7.88,4h-3.4a9.84,9.84,0,0,1-9.82-9.82v-22.7a9.84,9.84,0,0,1,9.82-9.82h3.4a9.82,9.82,0,0,1,7.93,4"/><line class="cls-9" x1="72.3" y1="130.64" x2="89" y2="130.64"/></svg>