<svg id="Layer_1" data-name="Layer 1" xmlns="http://www.w3.org/2000/svg" viewBox="0 0 52 52"><defs><style>.cls-1{fill:none;stroke:#450b6b;stroke-miterlimit:10;stroke-width:2px;}</style></defs><title>Untitled-9</title><path class="cls-1" d="M44.2,43.13c-2.36-2.08-6.24-3.71-11-4.55a1.39,1.39,0,0,1-1.17-1.42c0-.76,0-1.58,0-2.42,0-1.94,2.33-4.27,2.46-7a11,11,0,0,0,1.22-4.45,2.29,2.29,0,0,0-.55-1.7c0.19-1,.35-2.09.55-3.19,0.8-4.44-.75-7.64-4.65-9-1.41-.5-7.24-1.51-9.42-3.62-0.79-.76-0.25,3.53-1,3.85-3.82,1.72-5.33,4.39-4.54,8.79,0.2,1.1.36,2.18,0.55,3.19a2.29,2.29,0,0,0-.55,1.7,11,11,0,0,0,1.22,4.45c0.13,2.72,2.46,4.92,2.46,7,0,0.84,0,1.66,0,2.42a1.39,1.39,0,0,1-1.17,1.42c-4.72.84-8.61,2.47-11,4.55"/><circle class="cls-1" cx="26" cy="26" r="25"/></svg>