<svg id="Layer_1" data-name="Layer 1" xmlns="http://www.w3.org/2000/svg" viewBox="0 0 119.34 181.02"><defs><style>.cls-1,.cls-6{fill:#d6de23;}.cls-2{fill:#450b6b;}.cls-3{fill:#f2288f;}.cls-4{fill:#45096b;}.cls-5{fill:#fff;}.cls-5,.cls-6{stroke:#45096b;stroke-miterlimit:10;stroke-width:3px;}</style></defs><title>Untitled-8</title><path class="cls-1" d="M6.43,181H110.59c2.21-1.32,3.42-2.75,3.42-4.24,0-6.76-24.85-12.24-55.5-12.24S3,170,3,176.78C3,178.27,4.22,179.7,6.43,181Z"/><path class="cls-2" d="M91.89,13.24a45.09,45.09,0,0,0-63.84,0,1,1,0,0,0,0,1.37L34.46,21a1,1,0,0,0,1.37,0,34.1,34.1,0,0,1,48.28,0,1,1,0,0,0,1.37,0l6.41-6.41A1,1,0,0,0,91.89,13.24Z"/><path class="cls-3" d="M48.44,34.13a0.87,0.87,0,0,0,.62-0.26,15.42,15.42,0,0,1,21.84,0,0.87,0.87,0,0,0,1.24,0l5.77-5.77a0.88,0.88,0,0,0,0-1.24,25.32,25.32,0,0,0-35.85,0,0.87,0.87,0,0,0,0,1.24l5.77,5.77A0.88,0.88,0,0,0,48.44,34.13Z"/><rect class="cls-4" x="19.38" y="74.92" width="11.97" height="8.03" transform="translate(74.72 12.31) rotate(54.35)"/><polygon class="cls-4" points="9.46 180.99 18.25 154.07 45.17 180.99 9.46 180.99"/><polygon class="cls-4" points="108.61 180.99 99.82 154.07 72.9 180.99 108.61 180.99"/><circle class="cls-5" cx="59.01" cy="123.35" r="50.85"/><circle class="cls-1" cx="59.01" cy="123.35" r="39.71"/><path class="cls-4" d="M62.31,120V90.29a3.31,3.31,0,0,0-6.61,0V120h6.61Z"/><path class="cls-4" d="M55.7,119.76H37.44a3.31,3.31,0,0,0,0,6.61H55.7v-6.61Z"/><circle class="cls-6" cx="59.01" cy="123.35" r="6.6"/><rect class="cls-4" x="48.08" y="57.94" width="23.29" height="4.89"/><rect class="cls-4" x="53.42" y="63.91" width="11.97" height="4.26" transform="translate(125.46 6.63) rotate(90)"/><path class="cls-6" d="M39.93,61.37A23.68,23.68,0,0,0,3.09,88.48Z"/><rect class="cls-4" x="87.99" y="74.92" width="11.97" height="8.03" transform="translate(212.88 48.57) rotate(125.65)"/><path class="cls-6" d="M79.41,61.37a23.68,23.68,0,0,1,36.84,27.1Z"/><rect class="cls-4" x="58.72" y="150.52" width="2.01" height="9.77"/><rect class="cls-4" x="89.48" y="118.03" width="2.01" height="9.78" transform="translate(213.41 32.43) rotate(90)"/><rect class="cls-4" x="24.79" y="118.03" width="2.01" height="9.78" transform="translate(148.72 97.12) rotate(90)"/></svg>