<svg id="Layer_1" data-name="Layer 1" xmlns="http://www.w3.org/2000/svg" viewBox="0 0 64.41 81.14"><defs><style>.cls-1{fill:#450b6b;}.cls-2{fill:#f2288f;}</style></defs><title>Untitled-4</title><path class="cls-1" d="M46.61,53.92h-8v-8a6.4,6.4,0,0,0-12.81,0v8h-8a6.4,6.4,0,0,0,0,12.81h8v8a6.4,6.4,0,0,0,12.81,0v-8h8A6.4,6.4,0,0,0,46.61,53.92Z"/><path class="cls-2" d="M20.67,34.13a0.87,0.87,0,0,0,.62-0.26,15.42,15.42,0,0,1,21.84,0,0.87,0.87,0,0,0,1.24,0l5.77-5.77a0.88,0.88,0,0,0,0-1.24,25.32,25.32,0,0,0-35.85,0,0.87,0.87,0,0,0,0,1.24L20,33.88A0.88,0.88,0,0,0,20.67,34.13Z"/><path class="cls-1" d="M64.12,13.24a45.09,45.09,0,0,0-63.84,0,1,1,0,0,0,0,1.37L6.69,21a1,1,0,0,0,1.37,0,34.1,34.1,0,0,1,48.28,0,1,1,0,0,0,1.37,0l6.41-6.41A1,1,0,0,0,64.12,13.24Z"/></svg>