<svg id="Layer_1" data-name="Layer 1" xmlns="http://www.w3.org/2000/svg" xmlns:xlink="http://www.w3.org/1999/xlink" viewBox="0 0 44 44"><defs><style>.cls-1,.cls-6{fill:none;}.cls-2{opacity:0;isolation:isolate;}.cls-3{clip-path:url(#clip-path);}.cls-4{clip-path:url(#clip-path-2);}.cls-5{fill:#181818;}.cls-6{stroke:#450b6b;stroke-linecap:round;stroke-linejoin:round;stroke-width:2px;}</style><clipPath id="clip-path"><rect class="cls-1" x="10" y="5" width="24" height="34"/></clipPath><clipPath id="clip-path-2"><rect class="cls-1" x="5" y="5" width="34" height="34"/></clipPath></defs><title>Untitled-11</title><g class="cls-2"><g class="cls-3"><g class="cls-4"><g class="cls-3"><rect class="cls-5" width="44" height="44"/></g></g></g></g><path class="cls-6" d="M26.64,26.37V30a2,2,0,0,1-2,2H19.36a2,2,0,0,1-2-2V26.37A10.82,10.82,0,1,1,26.64,26.37Z"/><path class="cls-6" d="M22,8.86a7.73,7.73,0,0,0-7.73,7.73"/><path class="cls-6" d="M17.36,33.59A1.55,1.55,0,0,1,18.92,32h6.17a1.55,1.55,0,1,1,0,3.09H18.92A1.54,1.54,0,0,1,17.36,33.59Z"/><path class="cls-6" d="M19.68,35.91a2.32,2.32,0,0,0,4.64,0"/></svg>