<svg id="Layer_1" data-name="Layer 1" xmlns="http://www.w3.org/2000/svg" viewBox="0 0 281.16 185.94"><defs><style>.cls-1{fill:#f2288f;}.cls-2{fill:#450b6b;}</style></defs><title>Untitled-3</title><path class="cls-1" d="M281.16,91.15A135.27,135.27,0,0,0,246.12,0H30.25A30.34,30.34,0,0,0,0,30.25V155.69a30.34,30.34,0,0,0,30.25,30.25H242.71A135.34,135.34,0,0,0,281.16,91.15Z"/><path class="cls-2" d="M67.76,80.59C58.78,76.72,51,73.37,51,67.74c0-5,5.13-8.43,12.46-8.43,5.77,0,11,2.57,11,5.4v7.16h22.1V59.8c0-16.57-20.23-22.74-33-22.74-21.28,0-36.73,13.2-36.73,31.39,0,20,17.15,27.84,30.93,34.17,9.26,4.26,17.25,7.93,17.25,13.73,0,6.62-6.11,9.58-12.18,9.58C50,125.93,40.1,114.8,40,114.69l-2-2.29L24.16,129.61l1.26,1.59A49.38,49.38,0,0,0,62.62,148c21.54,0,36.59-13.44,36.59-32.69C99.2,94.14,81.77,86.63,67.76,80.59Z"/><path class="cls-2" d="M204,53.89a1.82,1.82,0,0,0-2.57,0l-12,12a1.82,1.82,0,0,0,0,2.57,32.06,32.06,0,0,1,0,45.4,1.82,1.82,0,0,0,0,2.57l12,12a1.82,1.82,0,0,0,2.57,0A52.64,52.64,0,0,0,204,53.89Z"/><path class="cls-2" d="M232.38,24.8a2,2,0,0,0-2.85,0L216.21,38.12a2,2,0,0,0,0,2.85,70.88,70.88,0,0,1,0,100.36,2,2,0,0,0,0,2.85l13.32,13.32a2,2,0,0,0,2.85,0A93.74,93.74,0,0,0,232.38,24.8Z"/><path class="cls-2" d="M169.17,80.27H156.08V67.18a10.47,10.47,0,1,0-20.93,0V80.27H122.07a10.47,10.47,0,1,0,0,20.93h13.08v13.08a10.47,10.47,0,1,0,20.93,0V101.2h13.08A10.47,10.47,0,0,0,169.17,80.27Z"/></svg>