<svg id="Layer_1" data-name="Layer 1" xmlns="http://www.w3.org/2000/svg" viewBox="0 0 435.18 65.56"><defs><style>.cls-1{fill:#450b6b;}</style></defs><title>Untitled-1</title><path class="cls-1" d="M16.29,19.28c0-2.81,3.16-4.09,6.23-4.09,2.81,0,6,1.36,6,3.58v2.64H42.13V14.76c0-9.29-11.34-13.22-19.44-13.22C10.58,1.54.94,8.87,0.94,19.88c0,19.1,27.63,19.87,27.63,26.61,0,3.41-3.07,4.52-6.14,4.52-7.68,0-14-7.16-14-7.16L0,54.5A29.8,29.8,0,0,0,22.26,64.56c13.73,0,21.66-8.7,21.66-18.85C43.92,25.67,16.29,26.7,16.29,19.28Z"/><path class="cls-1" d="M144.83,30.09H132V42.88h3.67a1.71,1.71,0,0,1,1.88,1.88v2.3a19.12,19.12,0,0,1-12.62,4.43c-8.7,0-16.8-6.05-16.8-18.08,0-10.66,7.93-17,16-17a24.76,24.76,0,0,1,14.07,4.86l8.53-10.83s-7.33-7.93-22.94-7.93c-18.17,0-31.55,13.47-31.55,31,0,20.81,14.16,32.07,29.51,32.07,10.4,0,16.46-5.29,16.46-5.29h0.17s-0.09,1.28-.09,2.56v1.71h12.79V36.31C151.06,32,149.18,30.09,144.83,30.09Z"/><rect class="cls-1" x="60.61" y="3.56" width="15" height="60.98"/><path class="cls-1" d="M203.84,9.79l-0.1,28.38-20-34.51V3.56H168.62v61H183.7V32c0.76,1.52,21.76,32.57,21.76,32.57H219.1V18.23A1.71,1.71,0,0,1,221,16.36h3.67V3.56H210.06C205.72,3.56,203.84,5.44,203.84,9.79Z"/><path class="cls-1" d="M386.88,24.72h-8v-8a6.4,6.4,0,1,0-12.81,0v8h-8a6.4,6.4,0,1,0,0,12.81h8v8a6.4,6.4,0,1,0,12.81,0v-8h8A6.4,6.4,0,0,0,386.88,24.72Z"/><path class="cls-1" d="M286.46,47.46L270.69,3.56H254.83l-15.76,43.9-6.25,17.08h16.5L254,51.75h17.64l4.57,12.79h16.5l-6.25-17.08h0Zm-29.32-8.08,3.07-10.15c1.19-3.84,2.47-10.06,2.47-10.06h0.17s1.28,6.23,2.47,10.06l3.07,10.15H257.14Z"/><path class="cls-1" d="M321.69,51.93V9.79c0-4.35-1.88-6.23-6.23-6.23H300.88V16.36h3.67a1.71,1.71,0,0,1,1.88,1.88V58.31c0,4.35,1.88,6.23,6.22,6.23H347.1V51.93H321.69Z"/><path class="cls-1" d="M408.31,14.28a0.87,0.87,0,0,0-1.24,0L401.3,20a0.88,0.88,0,0,0,0,1.24,15.42,15.42,0,0,1,0,21.84,0.87,0.87,0,0,0,0,1.24l5.77,5.77a0.88,0.88,0,0,0,1.24,0A25.32,25.32,0,0,0,408.31,14.28Z"/><path class="cls-1" d="M421.93,0.28a1,1,0,0,0-1.37,0l-6.41,6.41a1,1,0,0,0,0,1.37,34.1,34.1,0,0,1,0,48.28,1,1,0,0,0,0,1.37l6.41,6.41a1,1,0,0,0,1.37,0A45.09,45.09,0,0,0,421.93.28Z"/></svg>